HIERARCHY
ROOT Hips
{
	OFFSET 0.000000 0.000000 0.000000
	CHANNELS 6 Xposition Yposition Zposition Zrotation Yrotation Xrotation 
	JOINT LHipJoint
	{
		OFFSET 0.000000 0.000000 0.000000
		CHANNELS 3 Zrotation Yrotation Xrotation
		JOINT LeftUpLeg
		{
			OFFSET 1.363060 -1.794630 0.839290
			CHANNELS 3 Zrotation Yrotation Xrotation
			JOINT LeftLeg
			{
				OFFSET 2.448110 -6.726130 0.000000
				CHANNELS 3 Zrotation Yrotation Xrotation
				JOINT LeftFoot
				{
					OFFSET 2.562200 -7.039590 0.000000
					CHANNELS 3 Zrotation Yrotation Xrotation
					JOINT LeftToeBase
					{
						OFFSET 0.157640 -0.433110 2.322550
						CHANNELS 3 Zrotation Yrotation Xrotation
						End Site
						{
							OFFSET 0.000000 0.000000 0.000000
						}
					}
				}
			}
		}
	}
	JOINT RHipJoint
	{
		OFFSET 0.000000 0.000000 0.000000
		CHANNELS 3 Zrotation Yrotation Xrotation
		JOINT RightUpLeg
		{
			OFFSET -1.305520 -1.794630 0.839290
			CHANNELS 3 Zrotation Yrotation Xrotation
			JOINT RightLeg
			{
				OFFSET -2.542530 -6.985550 0.000000
				CHANNELS 3 Zrotation Yrotation Xrotation
				JOINT RightFoot
				{
					OFFSET -2.568260 -7.056230 0.000000
					CHANNELS 3 Zrotation Yrotation Xrotation
					JOINT RightToeBase
					{
						OFFSET -0.164730 -0.452590 2.363150
						CHANNELS 3 Zrotation Yrotation Xrotation
						End Site
						{
							OFFSET 0.000000 0.000000 0.000000
						}
					}
				}
			}
		}
	}
	JOINT LowerBack
	{
		OFFSET 0.000000 0.000000 0.000000
		CHANNELS 3 Zrotation Yrotation Xrotation
		JOINT Spine
		{
			OFFSET 0.028270 2.035590 -0.193380
			CHANNELS 3 Zrotation Yrotation Xrotation
			JOINT Spine1
			{
				OFFSET 0.056720 2.048850 -0.042750
				CHANNELS 3 Zrotation Yrotation Xrotation
				JOINT Neck
				{
					OFFSET 0.000000 0.000000 0.000000
					CHANNELS 3 Zrotation Yrotation Xrotation
					JOINT Neck1
					{
						OFFSET -0.054170 1.746240 0.172020
						CHANNELS 3 Zrotation Yrotation Xrotation
						JOINT Head
						{
							OFFSET 0.104070 1.761360 -0.123970
							CHANNELS 3 Zrotation Yrotation Xrotation
							End Site
							{
								OFFSET 0.000000 0.000000 0.000000
							}
						}
					}
				}
				JOINT LeftShoulder
				{
					OFFSET 0.000000 0.000000 0.000000
					CHANNELS 3 Zrotation Yrotation Xrotation
					JOINT LeftArm
					{
						OFFSET 3.362410 1.200890 -0.311210
						CHANNELS 3 Zrotation Yrotation Xrotation
						JOINT LeftForeArm
						{
							OFFSET 4.983000 -0.000000 -0.000000
							CHANNELS 3 Zrotation Yrotation Xrotation
							JOINT LeftHand
							{
								OFFSET 3.483560 -0.000000 -0.000000
								CHANNELS 3 Zrotation Yrotation Xrotation
								JOINT LeftFingerBase
								{
									OFFSET 0.000000 0.000000 0.000000
									CHANNELS 3 Zrotation Yrotation Xrotation
									JOINT LeftHandIndex1
									{
										OFFSET 0.715260 -0.000000 -0.000000
										CHANNELS 3 Zrotation Yrotation Xrotation
										End Site
										{
											OFFSET 0.000000 0.000000 0.000000
										}
									}
								}
								JOINT LThumb
								{
									OFFSET 0.000000 0.000000 0.000000
									CHANNELS 3 Zrotation Yrotation Xrotation
									End Site
									{
										OFFSET 0.000000 0.000000 0.000000
									}
								}
							}
						}
					}
				}
				JOINT RightShoulder
				{
					OFFSET 0.000000 0.000000 0.000000
					CHANNELS 3 Zrotation Yrotation Xrotation
					JOINT RightArm
					{
						OFFSET -3.136600 1.374050 -0.404650
						CHANNELS 3 Zrotation Yrotation Xrotation
						JOINT RightForeArm
						{
							OFFSET -5.241900 -0.000000 -0.000000
							CHANNELS 3 Zrotation Yrotation Xrotation
							JOINT RightHand
							{
								OFFSET -3.444170 -0.000000 -0.000000
								CHANNELS 3 Zrotation Yrotation Xrotation
								JOINT RightFingerBase
								{
									OFFSET 0.000000 0.000000 0.000000
									CHANNELS 3 Zrotation Yrotation Xrotation
									JOINT RightHandIndex1
									{
										OFFSET -0.622530 -0.000000 -0.000000
										CHANNELS 3 Zrotation Yrotation Xrotation
										End Site
										{
											OFFSET 0.000000 0.000000 0.000000
										}
									}
								}
								JOINT RThumb
								{
									OFFSET 0.000000 0.000000 0.000000
									CHANNELS 3 Zrotation Yrotation Xrotation
									End Site
									{
										OFFSET 0.000000 0.000000 0.000000
									}
								}
							}
						}
					}
				}
			}
		}
	}
}
MOTION
Frames: 11
Frame Time: 0.008333
-0.711050 13.718140 4.521716 105.934709 81.193820 141.459625 11.861596 1.588954 -3.316917 -25.921226 -24.321130 -87.332512 11.620194 25.706144 71.613410 -0.305684 -18.428275 2.589562 2.581700 9.985000 28.928200 -11.965657 -1.944092 -4.345519 15.999260 0.841821 -32.455789 -15.525728 -21.983039 79.253942 -3.398190 26.587541 -21.539349 -2.231900 9.333300 -26.843500 0.385098 2.077009 34.716437 -0.112713 3.530749 -2.311126 -6.288381 1.761857 -4.273010 0.484611 2.403618 -24.017555 2.537748 2.342405 -5.018071 -3.188100 0.194500 1.841200 9.878024 -9.803762 6.251133 -91.638008 23.924042 30.080796 52.721861 -51.378224 -19.130246 -0.411416 3.699077 -2.752393 8.312415 19.986609 2.420100 -7.125000 0.000000 0.000000 -17.833200 45.566900 -0.257800 -7.738478 8.261606 2.560394 57.353595 63.418340 40.763244 -29.363739 26.584920 -4.910232 -2.070317 -2.296076 9.247120 -21.655821 -3.759860 0.355200 7.125000 0.000000 0.000000 5.211000 -30.993200 1.790200 
-0.684204 13.812480 4.478590 101.228074 81.718252 136.655383 11.902301 1.536630 -3.342157 -25.545105 -24.154108 -86.630695 11.338583 25.616040 70.827288 -0.240127 -17.838755 2.077160 2.423800 9.698100 28.004400 -11.943286 -2.018856 -4.295530 16.065213 0.986815 -31.946274 -14.992012 -21.858250 77.805994 -3.434236 25.866720 -21.658527 -2.217500 9.305200 -26.754700 0.206957 2.149475 34.199091 -0.094786 3.587979 -2.353004 -5.992658 1.779520 -4.233112 0.166540 2.364802 -24.002389 2.568546 2.364217 -5.040933 -3.087500 0.219200 1.814000 9.898524 -9.874150 6.231819 -91.808108 23.789151 29.774009 53.183805 -51.628059 -19.459984 -0.421477 3.696881 -2.430299 8.188728 20.161936 2.419500 -7.125000 0.000000 0.000000 -17.979500 45.726600 -0.333200 -7.780738 8.341461 2.654393 57.754367 62.104821 41.641409 -30.869534 28.255633 -5.448022 -1.971956 -2.394913 6.493718 -21.605900 -3.681875 0.323700 7.125000 0.000000 0.000000 5.255500 -30.903900 1.816900 
-0.656495 13.906927 4.434924 95.873354 82.162880 131.196256 11.934332 1.467193 -3.374627 -25.162166 -23.999386 -85.903618 11.053919 25.520270 70.030046 -0.175552 -17.220823 1.568312 2.265300 9.398200 27.049000 -11.930626 -2.110707 -4.241378 16.130697 1.095155 -31.425515 -14.450037 -21.716314 76.327961 -3.463498 25.128218 -21.771608 -2.207900 9.286300 -26.695100 0.078308 2.195402 33.688854 -0.088105 3.616028 -2.391062 -5.832961 1.784489 -4.221621 0.049730 2.350983 -23.800064 2.700096 2.385797 -5.218118 -3.254700 0.248500 1.869600 9.901873 -9.927773 6.213774 -91.847592 23.677430 29.482487 53.680508 -51.868854 -19.813345 -0.428207 3.689280 -2.106702 8.062080 20.308795 2.413300 -7.125000 0.000000 0.000000 -18.124100 45.863800 -0.399500 -7.824713 8.409808 2.778636 58.287067 60.825260 42.374029 -32.343630 29.919027 -6.020591 -1.871873 -2.473145 3.934393 -21.516627 -3.596084 0.293400 7.125000 0.000000 0.000000 5.328200 -30.818700 1.853200 
-0.628139 14.001590 4.391258 89.822427 82.499757 125.028894 11.951318 1.380054 -3.408664 -24.784824 -23.857862 -85.147049 10.765119 25.418039 69.219243 -0.112225 -16.575262 1.056898 2.104700 9.080800 26.048500 -11.932384 -2.220880 -4.179709 16.179728 1.171243 -30.891655 -13.901943 -21.554925 74.822977 -3.479731 24.406689 -21.847148 -2.193600 9.258200 -26.606400 -0.056451 2.276980 33.174320 -0.093898 3.684970 -2.434199 -5.736210 1.810331 -4.177192 -0.096550 2.272318 -23.811600 2.735094 2.315144 -5.225698 -3.182300 0.223400 1.852800 9.909290 -9.987917 6.175908 -91.731282 23.546929 29.329858 54.213556 -52.092700 -20.187553 -0.433664 3.678140 -1.844384 7.953583 20.437884 2.408300 -7.125000 0.000000 0.000000 -18.252800 45.988700 -0.460700 -7.867904 8.495199 2.863824 58.743660 59.438438 42.775693 -33.790796 31.562871 -6.625204 -1.768009 -2.529656 1.596419 -21.337096 -3.489176 0.259500 7.125000 0.000000 0.000000 5.464100 -30.724600 1.913200 
-0.598813 14.095929 4.347269 83.169514 82.715458 118.248165 11.950419 1.279844 -3.443372 -24.408702 -23.732722 -84.363929 10.473920 25.309757 68.399204 -0.050433 -15.897771 0.542075 1.941700 8.743600 24.996400 -11.951494 -2.345202 -4.116436 16.216519 1.209183 -30.343501 -13.349800 -21.372216 73.294611 -3.484880 23.692858 -21.892385 -2.179500 9.230400 -26.518800 -0.164831 2.380792 32.660597 -0.118842 3.778839 -2.476693 -5.796798 1.851085 -4.120241 -0.085365 2.168066 -23.852617 2.771573 2.176570 -5.223065 -3.154700 0.160100 1.852100 9.909285 -10.033897 6.122019 -91.378838 23.420414 29.336505 54.786849 -52.294894 -20.591330 -0.431372 3.668989 -1.691396 7.937777 20.576881 2.426900 -7.125000 0.000000 0.000000 -18.314600 46.129800 -0.528300 -7.913099 8.584289 2.949447 59.251786 58.019382 42.883899 -35.170348 33.162261 -7.254096 -1.671613 -2.569090 -0.440193 -21.148758 -3.395779 0.232500 7.125000 0.000000 0.000000 5.604600 -30.649800 1.972800 
-0.568840 14.189730 4.303172 76.056681 82.801906 110.994497 11.923566 1.169657 -3.476277 -24.018911 -23.619166 -83.562279 10.182509 25.195548 67.574048 0.009928 -15.180116 0.023037 1.774300 8.379300 23.872100 -11.996008 -2.480617 -4.055275 16.254442 1.221316 -29.776958 -12.794987 -21.167612 71.747795 -3.474818 22.995345 -21.881762 -2.161500 9.194700 -26.406300 -0.290930 2.473646 32.148735 -0.140560 3.851907 -2.520301 -5.844345 1.877690 -4.068993 -0.098357 2.064373 -23.884012 2.815192 2.043564 -5.214665 -3.116400 0.101200 1.851400 9.906348 -10.078678 6.069515 -91.061361 23.289982 29.290565 55.385295 -52.504558 -21.018331 -0.425066 3.662978 -1.603880 7.982949 20.720178 2.461100 -7.125000 0.000000 0.000000 -18.329700 46.277900 -0.597900 -7.956962 8.662937 3.036266 59.821620 56.616248 43.005400 -36.524250 34.705824 -7.912316 -1.584952 -2.596896 -2.183753 -20.979232 -3.339371 0.219300 7.125000 0.000000 0.000000 5.730100 -30.614400 2.022300 
-0.538004 14.282883 4.259183 68.682072 82.745689 103.465149 11.869440 1.057541 -3.502807 -23.618725 -23.516436 -82.746852 9.893555 25.076064 66.751405 0.067981 -14.421321 -0.498293 1.607400 7.995300 22.699700 -12.066296 -2.620100 -4.001552 16.291138 1.199544 -29.190852 -12.240780 -20.938534 70.187834 -3.449311 22.315255 -21.808230 -2.142300 9.156400 -26.285700 -0.443219 2.550651 31.635812 -0.156509 3.894264 -2.565201 -5.859779 1.885884 -4.022884 -0.154901 1.972384 -23.906953 2.868082 1.936006 -5.198081 -3.059800 0.057500 1.853300 9.900332 -10.121860 6.020758 -90.810954 23.161704 29.175493 56.016796 -52.728502 -21.477562 -0.412654 3.664726 -1.611671 8.131734 20.891903 2.525900 -7.125000 0.000000 0.000000 -18.269700 46.456000 -0.678700 -8.000205 8.730417 3.122104 60.454078 55.246149 43.189490 -37.840747 36.171147 -8.586717 -1.512025 -2.607927 -3.586655 -20.811384 -3.266531 0.202400 7.125000 0.000000 0.000000 5.852100 -30.567100 2.072400 
-0.506414 14.375066 4.214978 61.254137 82.538938 95.869334 11.793561 0.953024 -3.519035 -23.214832 -23.423747 -81.922206 9.608763 24.951910 65.935667 0.123279 -13.616787 -1.023065 1.441200 7.589700 21.474700 -12.156425 -2.754039 -3.959647 16.317882 1.143491 -28.592435 -11.690810 -20.685000 68.622369 -3.408074 21.646979 -21.662883 -2.124900 9.121600 -26.176500 -0.609553 2.598310 31.120367 -0.171940 3.886926 -2.611570 -5.883149 1.870014 -3.980414 -0.231516 1.902279 -23.908337 2.937551 1.862353 -5.178606 -2.983500 0.033300 1.849300 9.886736 -10.156612 5.975679 -90.618165 23.043070 28.945247 56.675501 -52.956575 -21.963194 -0.397100 3.670642 -1.679282 8.337086 21.081052 2.608400 -7.125000 0.000000 0.000000 -18.169800 46.652800 -0.765800 -8.045582 8.787377 3.210646 61.181429 53.938239 43.476006 -39.113659 37.551169 -9.270076 -1.458317 -2.602220 -4.612258 -20.668324 -3.147227 0.171600 7.125000 0.000000 0.000000 5.952800 -30.476500 2.121400 
-0.474393 14.466171 4.170666 53.983658 82.186537 88.418262 11.703718 0.863261 -3.523301 -22.801763 -23.332282 -81.093281 9.330927 24.823884 65.133644 0.174536 -12.769258 -1.540936 1.283000 7.177900 20.243400 -12.258359 -2.874646 -3.931922 16.336670 1.057965 -27.986587 -11.148706 -20.409035 67.060256 -3.349740 20.993200 -21.431732 -2.111000 9.093500 -26.088200 -0.786584 2.635795 30.605346 -0.190720 3.855601 -2.658449 -5.944382 1.845179 -3.936620 -0.263344 1.856092 -23.914149 3.011124 1.811550 -5.150875 -2.916500 0.019500 1.853200 9.869312 -10.180750 5.930120 -90.416269 22.924726 28.646682 57.350829 -53.174047 -22.460070 -0.383958 3.670464 -1.781418 8.517814 21.228359 2.679200 -7.125000 0.000000 0.000000 -18.078500 46.812800 -0.835300 -8.092444 8.842356 3.296274 61.979733 52.670851 43.785266 -40.322399 38.837780 -9.949359 -1.426147 -2.577838 -5.236063 -20.544502 -2.946406 0.116100 7.125000 0.000000 0.000000 6.034800 -30.308500 2.175300 
-0.441940 14.556198 4.126245 47.077876 81.692238 81.316829 11.606057 0.792349 -3.514587 -22.378517 -23.239195 -80.259622 9.061714 24.692715 64.349635 0.220709 -11.883365 -2.047472 1.135300 6.767000 19.026800 -12.365605 -2.977340 -3.919226 16.347140 0.943014 -27.378931 -10.618180 -20.112566 65.510548 -3.274485 20.357650 -21.109213 -2.100500 9.072400 -26.022200 -0.989911 2.694624 30.096190 -0.210151 3.842379 -2.706230 -6.010741 1.831662 -3.906620 -0.254355 1.820668 -23.911092 3.075082 1.764099 -5.115740 -2.869600 0.004500 1.862900 9.855497 -10.204479 5.885022 -90.189361 22.802071 28.346060 58.027821 -53.379324 -22.959544 -0.370555 3.669484 -1.897960 8.704552 21.362153 2.750400 -7.125000 0.000000 0.000000 -17.978100 46.961500 -0.898300 -8.138569 8.903729 3.367720 62.763413 51.366383 44.035860 -41.465263 40.038834 -10.622756 -1.413325 -2.539422 -5.499429 -20.452455 -2.685831 0.042600 7.125000 0.000000 0.000000 6.090100 -30.082900 2.228300 
-0.409271 14.644931 4.081286 40.658550 81.076102 74.688727 11.510554 0.741608 -3.494232 -21.934303 -23.142595 -79.426163 8.803108 24.559704 63.588564 0.260721 -10.961941 -2.537248 0.999200 6.361200 17.836100 -12.468259 -3.059811 -3.919630 16.356968 0.796801 -26.783384 -10.103310 -19.800772 63.985010 -3.184418 19.737969 -20.699444 -2.098400 9.068000 -26.008400 -1.171320 2.761850 29.595490 -0.236587 3.840948 -2.755741 -6.141194 1.828872 -3.888287 -0.175218 1.795731 -23.903998 3.136202 1.714088 -5.072600 -2.843200 -0.013900 1.879500 9.840483 -10.220671 5.837091 -89.900769 22.681862 28.046426 58.698934 -53.561179 -23.456732 -0.354508 3.668055 -2.016117 8.904367 21.484040 2.823800 -7.125000 0.000000 0.000000 -17.863800 47.101200 -0.955600 -8.186676 8.972057 3.430823 63.567645 50.049727 44.241645 -42.535977 41.149627 -11.276705 -1.413614 -2.486435 -5.445024 -20.342511 -2.352388 -0.052700 7.125000 0.000000 0.000000 6.154000 -29.788000 2.295500 
